<svg width="163" height="49" viewBox="0 0 163 49" fill="none" xmlns="http://www.w3.org/2000/svg">
<path fill-rule="evenodd" clip-rule="evenodd" d="M21.6168 49C18.8005 49 16.5175 46.717 16.5175 43.9007V15.2447C16.5175 12.4285 18.8005 10.1454 21.6168 10.1454C24.433 10.1454 26.716 12.4285 26.716 15.2447V43.9007C26.716 46.717 24.433 49 21.6168 49Z" fill="#F6921E"/>
<path fill-rule="evenodd" clip-rule="evenodd" d="M5.21782 49C2.40159 49 0.118587 46.717 0.118587 43.9008V30.1888C0.118587 27.3725 2.40159 25.0895 5.21782 25.0895C8.03405 25.0895 10.3171 27.3725 10.3171 30.1888V43.9008C10.3171 46.717 8.03405 49 5.21782 49Z" fill="#FFC300"/>
<path fill-rule="evenodd" clip-rule="evenodd" d="M55.4512 48.9999C52.635 48.9999 50.352 46.7169 50.352 43.9007V9.26702C50.352 6.45079 52.635 4.16779 55.4512 4.16779C58.2675 4.16779 60.5505 6.45079 60.5505 9.26702V43.9007C60.5505 46.7169 58.2675 48.9999 55.4512 48.9999Z" fill="#F6921E"/>
<path fill-rule="evenodd" clip-rule="evenodd" d="M39.0523 49C36.2361 49 33.9531 46.717 33.9531 43.9007V15.2447C33.9531 12.4285 36.2361 10.1454 39.0523 10.1454C41.8685 10.1454 44.1515 12.4285 44.1515 15.2447V43.9007C44.1515 46.717 41.8685 49 39.0523 49Z" fill="#FFC300"/>
<path fill-rule="evenodd" clip-rule="evenodd" d="M89.2859 49C86.4697 49 84.1867 46.717 84.1867 43.9008V18.2335C84.1867 15.4173 86.4697 13.1343 89.2859 13.1343C92.1022 13.1343 94.3852 15.4173 94.3852 18.2335V43.9008C94.3852 46.717 92.1022 49 89.2859 49Z" fill="#F6921E"/>
<path fill-rule="evenodd" clip-rule="evenodd" d="M72.887 49C70.0708 49 67.7878 46.717 67.7878 43.9008V27.2C67.7878 24.3837 70.0708 22.1007 72.887 22.1007C75.7033 22.1007 77.9863 24.3837 77.9863 27.2V43.9008C77.9863 46.717 75.7033 49 72.887 49Z" fill="#FFC300"/>
<path fill-rule="evenodd" clip-rule="evenodd" d="M123.121 49C120.304 49 118.021 46.7169 118.021 43.9007V12.2558C118.021 9.43962 120.304 7.15662 123.121 7.15662C125.937 7.15662 128.22 9.43962 128.22 12.2558V43.9007C128.22 46.717 125.937 49 123.121 49Z" fill="#F6921E"/>
<path fill-rule="evenodd" clip-rule="evenodd" d="M106.721 49C103.905 49 101.622 46.717 101.622 43.9007V30.1887C101.622 27.3725 103.905 25.0895 106.721 25.0895C109.538 25.0895 111.821 27.3725 111.821 30.1887V43.9007C111.821 46.7169 109.538 49 106.721 49Z" fill="#FFC300"/>
<path fill-rule="evenodd" clip-rule="evenodd" d="M156.955 49C154.139 49 151.856 46.717 151.856 43.9007V5.97936C151.856 3.16313 154.139 0.880127 156.955 0.880127C159.772 0.880127 162.055 3.16313 162.055 5.97936V43.9007C162.055 46.717 159.772 49 156.955 49Z" fill="#F6921E"/>
<path fill-rule="evenodd" clip-rule="evenodd" d="M140.556 49C137.74 49 135.457 46.717 135.457 43.9008V21.2223C135.457 18.4061 137.74 16.1231 140.556 16.1231C143.372 16.1231 145.655 18.4061 145.655 21.2223V43.9008C145.655 46.717 143.372 49 140.556 49Z" fill="#FFC300"/>
</svg>
